<svg width="510" height="455" xmlns="http://www.w3.org/2000/svg" xmlns:xlink="http://www.w3.org/1999/xlink" xml:space="preserve" overflow="hidden"><defs><filter id="fx0" x="-10%" y="-10%" width="120%" height="120%" filterUnits="userSpaceOnUse" primitiveUnits="userSpaceOnUse"><feComponentTransfer color-interpolation-filters="sRGB"><feFuncR type="discrete" tableValues="0 0"/><feFuncG type="discrete" tableValues="0 0"/><feFuncB type="discrete" tableValues="0 0"/><feFuncA type="linear" slope="0.631373" intercept="0"/></feComponentTransfer><feGaussianBlur stdDeviation="6.875 6.875"/></filter><filter id="fx1" x="-10%" y="-10%" width="120%" height="120%" filterUnits="userSpaceOnUse" primitiveUnits="userSpaceOnUse"><feComponentTransfer color-interpolation-filters="sRGB"><feFuncR type="discrete" tableValues="0 0"/><feFuncG type="discrete" tableValues="0 0"/><feFuncB type="discrete" tableValues="0 0"/><feFuncA type="linear" slope="0.631373" intercept="0"/></feComponentTransfer><feGaussianBlur stdDeviation="6.875 6.875"/></filter><filter id="fx2" x="-10%" y="-10%" width="120%" height="120%" filterUnits="userSpaceOnUse" primitiveUnits="userSpaceOnUse"><feComponentTransfer color-interpolation-filters="sRGB"><feFuncR type="discrete" tableValues="0 0"/><feFuncG type="discrete" tableValues="0 0"/><feFuncB type="discrete" tableValues="0 0"/><feFuncA type="linear" slope="0.631373" intercept="0"/></feComponentTransfer><feGaussianBlur stdDeviation="6.875 6.875"/></filter><filter id="fx3" x="-10%" y="-10%" width="120%" height="120%" filterUnits="userSpaceOnUse" primitiveUnits="userSpaceOnUse"><feComponentTransfer color-interpolation-filters="sRGB"><feFuncR type="discrete" tableValues="0 0"/><feFuncG type="discrete" tableValues="0 0"/><feFuncB type="discrete" tableValues="0 0"/><feFuncA type="linear" slope="0.631373" intercept="0"/></feComponentTransfer><feGaussianBlur stdDeviation="6.875 6.875"/></filter><clipPath id="clip4"><rect x="1945" y="1017" width="510" height="455"/></clipPath><linearGradient x1="2234.5" y1="1031" x2="2234.5" y2="1128" gradientUnits="userSpaceOnUse" spreadMethod="reflect" id="fill5"><stop offset="0" stop-color="#454545"/><stop offset="0.5"/><stop offset="1"/></linearGradient><linearGradient x1="2042" y1="1293" x2="2042" y2="1444" gradientUnits="userSpaceOnUse" spreadMethod="reflect" id="fill6"><stop offset="0" stop-color="#454545"/><stop offset="0.5"/><stop offset="1"/></linearGradient><linearGradient x1="2358.5" y1="1293" x2="2358.5" y2="1444" gradientUnits="userSpaceOnUse" spreadMethod="reflect" id="fill7"><stop offset="0" stop-color="#454545"/><stop offset="0.5"/><stop offset="1"/></linearGradient><linearGradient x1="2186" y1="1128" x2="2186" y2="1396" gradientUnits="userSpaceOnUse" spreadMethod="reflect" id="fill8"><stop offset="0" stop-color="#454545"/><stop offset="0.5"/><stop offset="1"/></linearGradient></defs><g clip-path="url(#clip4)" transform="translate(-1945 -1017)"><g filter="url(#fx0)" transform="translate(2164 1016)"><g><path d="M119 70.3748C119 97.1606 97.2857 118.875 70.5 118.875 43.7142 118.875 22 97.1606 22 70.3748 22 43.5891 43.7142 21.8749 70.5 21.8749 97.2857 21.8749 119 43.5891 119 70.3748Z" fill="#FF0000" fill-rule="evenodd"/></g></g><path d="M2283 1079.5C2283 1106.29 2261.29 1128 2234.5 1128 2207.71 1128 2186 1106.29 2186 1079.5 2186 1052.71 2207.71 1031 2234.5 1031 2261.29 1031 2283 1052.71 2283 1079.5Z" fill="url(#fill5)" fill-rule="evenodd"/><g filter="url(#fx1)" transform="translate(1944 1278)"><g><path d="M174 97.375C174 139.072 139.973 172.875 97.9998 172.875 56.0263 172.875 21.9999 139.072 21.9999 97.375 21.9999 55.6775 56.0263 21.8749 97.9998 21.8749 139.973 21.8749 174 55.6775 174 97.375Z" fill="#FF0000" fill-rule="evenodd"/></g></g><path d="M2118 1368.5C2118 1410.2 2083.97 1444 2042 1444 2000.03 1444 1966 1410.2 1966 1368.5 1966 1326.8 2000.03 1293 2042 1293 2083.97 1293 2118 1326.8 2118 1368.5Z" fill="url(#fill6)" fill-rule="evenodd"/><g filter="url(#fx2)" transform="translate(2261 1278)"><g><path d="M173 97.375C173 139.072 139.197 172.875 97.4999 172.875 55.8024 172.875 21.9998 139.072 21.9998 97.375 21.9998 55.6775 55.8024 21.8749 97.4999 21.8749 139.197 21.8749 173 55.6775 173 97.375Z" fill="#FF0000" fill-rule="evenodd"/></g></g><path d="M2434 1368.5C2434 1410.2 2400.2 1444 2358.5 1444 2316.8 1444 2283 1410.2 2283 1368.5 2283 1326.8 2316.8 1293 2358.5 1293 2400.2 1293 2434 1326.8 2434 1368.5Z" fill="url(#fill7)" fill-rule="evenodd"/><g filter="url(#fx3)" transform="translate(1944 1113)"><g><path d="M277.75 137.177 243.375 133.737 275.687 78.0232 349.25 117.917C348.562 118.605 348.562 119.293 347.875 119.981L290.125 152.309 290.125 150.933C290.125 144.055 284.625 137.865 277.75 137.177ZM413.875 166.065C426.937 166.065 439.312 168.817 450.312 173.632 457.187 161.251 462 146.806 462 131.674 462 86.2771 424.875 49.1343 379.5 49.1343 369.875 49.1343 360.937 51.1978 352 53.9491 355.437 60.8274 357.5 68.3935 358.187 76.6475L265.375 25.748C264 25.0602 262.625 24.3724 261.25 24.3724 245.437 18.1819 227.562 23.6845 218.625 38.8168L170.5 121.356C169.812 122.732 169.125 124.796 168.437 126.171L21.9999 111.039 21.9999 138.552 125.125 170.192C165 181.886 193.875 219.029 193.875 262.362 193.875 271.992 192.5 280.933 189.75 289.875L321.75 289.875C319 280.933 317.625 271.992 317.625 262.362 317.625 209.399 360.937 166.065 413.875 166.065Z" fill="#FF0000" fill-rule="evenodd"/></g></g><path d="M2221.75 1243.3 2187.38 1239.86 2219.69 1184.15 2293.25 1224.04C2292.56 1224.73 2292.56 1225.42 2291.88 1226.11L2234.12 1258.43 2234.12 1257.06C2234.12 1250.18 2228.62 1243.99 2221.75 1243.3ZM2357.88 1272.19C2370.94 1272.19 2383.31 1274.94 2394.31 1279.76 2401.19 1267.38 2406 1252.93 2406 1237.8 2406 1192.4 2368.88 1155.26 2323.5 1155.26 2313.88 1155.26 2304.94 1157.32 2296 1160.07 2299.44 1166.95 2301.5 1174.52 2302.19 1182.77L2209.38 1131.87C2208 1131.19 2206.62 1130.5 2205.25 1130.5 2189.44 1124.31 2171.56 1129.81 2162.62 1144.94L2114.5 1227.48C2113.81 1228.86 2113.12 1230.92 2112.44 1232.3L1966 1217.16 1966 1244.68 2069.12 1276.32C2109 1288.01 2137.88 1325.15 2137.88 1368.49 2137.88 1378.12 2136.5 1387.06 2133.75 1396L2265.75 1396C2263 1387.06 2261.62 1378.12 2261.62 1368.49 2261.62 1315.52 2304.94 1272.19 2357.88 1272.19Z" fill="url(#fill8)" fill-rule="evenodd"/></g></svg>